<?xml version="1.0" encoding="utf-8"?>
<!-- Generator: Adobe Illustrator 16.0.2, SVG Export Plug-In . SVG Version: 6.00 Build 0)  -->
<!DOCTYPE svg PUBLIC "-//W3C//DTD SVG 1.1//EN" "http://www.w3.org/Graphics/SVG/1.1/DTD/svg11.dtd">
<svg version="1.1" id="Layer_1" xmlns="http://www.w3.org/2000/svg" xmlns:xlink="http://www.w3.org/1999/xlink" x="0px" y="0px"
	 width="250px" height="294.085px" viewBox="0 0 250 294.085" enable-background="new 0 0 250 294.085" xml:space="preserve">
<g>
	<path fill="#034FC9" d="M243.232,85.525v65.541c0,12.844-3.402,25.501-8.825,37.406c-6.477,14.219-15.837,27.365-25.724,38.478
		c-11.024,12.391-23.808,23.639-37.618,33.508c-14.456,10.328-30.04,19.146-45.914,26.179L125,286.704l-0.151-0.067
		c-15.874-7.033-31.458-15.851-45.914-26.179c-13.811-9.869-26.594-21.117-37.618-33.508c-9.887-11.112-19.247-24.259-25.724-38.478
		c-5.423-11.905-8.826-24.563-8.826-37.406V85.525H243.232z"/>
	<rect x="7.143" y="8.271" fill-rule="evenodd" clip-rule="evenodd" fill="#F12107" width="235.715" height="77.255"/>
	<path fill-rule="evenodd" clip-rule="evenodd" fill="#F9AE37" d="M125,286.293c30.994-13.732,60.873-34.271,83.402-59.592
		c18.118-20.363,34.455-47.554,34.455-75.635c0-47.975,0-94.821,0-142.796c-39.286,0-78.571,0-117.857,0
		c-39.286,0-78.572,0-117.857,0c0,47.975,0,94.821,0,142.796c0,28.081,16.337,55.271,34.455,75.635
		C64.126,252.022,94.005,272.561,125,286.293 M0.376,0.376c41.541,0,83.083,0,124.624,0c41.541,0,83.082,0,124.624,0
		c0,51.984,0,98.705,0,150.69c0,53.49-54.901,112.659-124.624,142.609C55.276,263.726,0.376,204.557,0.376,151.066
		C0.376,99.081,0.376,52.36,0.376,0.376z"/>
	<path d="M125,0.752H0.751v150.314c0,26.177,13.209,53.735,34.89,78.545c22.454,25.694,53.991,48.438,89.358,63.655
		c35.366-15.218,66.904-37.961,89.357-63.655c21.682-24.81,34.892-52.368,34.892-78.545V0.752H125z M0.376,0H250v151.066
		c0,26.366-13.28,54.095-35.078,79.038c-22.559,25.815-54.247,48.656-89.772,63.917L125,294.085l-0.148-0.063
		c-35.527-15.261-67.215-38.102-89.773-63.917C13.279,205.161,0,177.433,0,151.066V0H0.376z"/>
	<path d="M171.065,260.458c-14.456,10.328-30.04,19.146-45.914,26.179L125,286.704l-0.151-0.067
		c-15.874-7.033-31.458-15.851-45.914-26.179c-13.811-9.869-26.594-21.117-37.618-33.508c-9.887-11.112-19.247-24.259-25.724-38.478
		c-5.423-11.905-8.826-24.563-8.826-37.406V7.895c78.817-0.078,157.648-0.078,236.465,0v143.172c0,12.844-3.402,25.501-8.825,37.406
		c-6.477,14.219-15.837,27.365-25.724,38.478C197.659,239.341,184.876,250.589,171.065,260.458 M125,285.883
		c15.777-7.003,31.264-15.771,45.631-26.036c13.764-9.834,26.504-21.046,37.491-33.396c9.845-11.065,19.162-24.149,25.604-38.29
		c5.379-11.81,8.755-24.362,8.755-37.095V8.646H7.519v142.42c0,12.732,3.376,25.285,8.755,37.095
		c6.441,14.141,15.759,27.225,25.604,38.29c10.988,12.35,23.728,23.562,37.491,33.396C93.736,270.111,109.223,278.88,125,285.883z"
		/>
	<path d="M242.857,85.901H6.767V7.895h236.465v78.007H242.857z M7.519,85.149h234.963V8.646H7.519V85.149z"/>
	<path fill-rule="evenodd" clip-rule="evenodd" d="M243.232,90.739L113.881,281.469c-2.857-1.427-5.698-2.912-8.518-4.454
		L235.231,85.525h8.001V90.739z M207.729,85.525L85.854,265.23c-2.332-1.553-4.64-3.145-6.919-4.772l-0.93-0.669L196.19,85.525
		H207.729z M168.19,85.525L59.826,245.309c-2.422-2.132-4.793-4.311-7.108-6.533l103.935-153.25H168.19z M128.901,85.525
		L36.668,221.521c-2.104-2.557-4.167-5.202-6.163-7.927l86.856-128.069H128.901z M89.362,85.525L17.219,191.9
		c-0.56-1.136-1.103-2.278-1.626-3.428c-1.04-2.283-2.006-4.596-2.888-6.931l65.119-96.017H89.362z M49.948,85.525l-43.181,63.67
		v-17.013L38.41,85.525H49.948z M243.232,149.405l-78.104,115.169c-6.391,4.296-12.972,8.3-19.674,11.992l97.778-144.174V149.405z"
		/>
	<path fill-rule="evenodd" clip-rule="evenodd" fill="#D2D2D4" d="M242.481,90.509L113.629,280.502
		c-2.406-1.21-4.799-2.46-7.179-3.75L235.884,85.901h6.598V90.509z M206.565,85.901L85.65,264.191
		c-2.116-1.417-4.21-2.866-6.281-4.345l-0.332-0.238L196.843,85.901H206.565z M167.027,85.901L59.683,244.181
		c-2.033-1.803-4.03-3.64-5.987-5.507L157.305,85.901H167.027z M127.736,85.901L36.612,220.267c-1.766-2.169-3.5-4.4-5.187-6.689
		l86.59-127.676H127.736z M88.199,85.901L17.324,190.406c-0.357-0.745-0.708-1.493-1.05-2.245c-0.979-2.148-1.892-4.323-2.729-6.517
		l64.933-95.743H88.199z M48.785,85.901L7.519,146.749v-14.335l31.545-46.513H48.785z M163.47,265.679L163.47,265.679l-0.648,0.427
		L163.47,265.679z M242.481,149.175l-77.896,114.859c-5.451,3.661-11.042,7.108-16.729,10.331l94.625-139.525V149.175z"/>
	<path fill-rule="evenodd" clip-rule="evenodd" d="M11.456,85.525l130.755,192.799c2.814-1.5,5.608-3.054,8.379-4.661L22.995,85.525
		H11.456z M50.497,85.525l119.265,175.857c0.437-0.308,0.87-0.615,1.304-0.925c2.159-1.544,4.294-3.121,6.401-4.731L62.036,85.525
		H50.497z M90.035,85.525l105.23,155.162c2.369-2.218,4.682-4.48,6.936-6.787L101.574,85.525H90.035z M129.324,85.525
		l88.436,130.396c2.038-2.688,4.017-5.458,5.908-8.301L140.864,85.525H129.324z M168.862,85.525l67.213,99.104
		c1.521-3.688,2.84-7.44,3.916-11.241l-59.589-87.863H168.862z M208.276,85.525l34.956,51.542v-17.014l-23.416-34.528H208.276z
		 M6.767,137.276l92.401,136.245c5.916,3.443,11.942,6.641,18.033,9.578L6.767,120.263V137.276z"/>
	<path fill-rule="evenodd" clip-rule="evenodd" fill="#D2D2D4" d="M144.319,277.188c0.439-0.239,0.879-0.48,1.317-0.723
		C145.198,276.708,144.759,276.949,144.319,277.188 M12.62,85.901l129.835,191.441c2.368-1.27,4.722-2.579,7.06-3.926L22.342,85.901
		H12.62z M51.661,85.901l118.295,174.426l0.675-0.48c1.959-1.401,3.899-2.829,5.815-4.284L61.382,85.901H51.661z M91.199,85.901
		l104.195,153.636c1.988-1.875,3.937-3.783,5.842-5.723L100.921,85.901H91.199z M130.489,85.901l87.303,128.729
		c1.707-2.28,3.369-4.616,4.971-7.006L140.21,85.901H130.489z M170.027,85.901l65.881,97.143c1.246-3.131,2.344-6.309,3.266-9.521
		l-59.426-87.622H170.027z M209.441,85.901l33.04,48.719v-14.336l-23.319-34.383H209.441z M7.519,137.046L99.695,272.96
		c5.028,2.922,10.139,5.666,15.3,8.224L7.519,122.711V137.046z"/>
	<polygon fill-rule="evenodd" clip-rule="evenodd" fill="#D2D2D4" points="52.488,20.825 59.394,30.126 71.408,28.054 
		69.161,39.134 79.245,45.503 69.161,51.872 71.408,62.953 59.394,60.88 52.488,70.181 45.583,60.88 33.568,62.953 35.816,51.872 
		25.731,45.503 35.816,39.134 33.568,28.054 45.583,30.126 	"/>
	<path d="M59.093,30.349l-6.604-8.895l-6.742,9.081l-11.702-2.02l2.191,10.798l-9.802,6.189l9.802,6.19L34.044,62.49l11.702-2.019
		l6.742,9.081l6.742-9.081l11.701,2.019l-2.19-10.797l9.801-6.19l-9.801-6.189l2.19-10.798l-11.701,2.02L59.093,30.349z
		 M52.789,20.602l6.768,9.115l12.327-2.127l-2.305,11.364l10.368,6.549l-10.368,6.548l2.305,11.366l-12.327-2.128l-7.069,9.521
		l-7.069-9.521l-12.328,2.128l2.306-11.366L25.03,45.503l10.368-6.549L33.092,27.59l12.328,2.127l7.069-9.521L52.789,20.602z"/>
	<polygon fill-rule="evenodd" clip-rule="evenodd" fill="#D2D2D4" points="197.512,20.825 204.417,30.126 216.431,28.054 
		214.184,39.134 224.268,45.503 214.184,51.872 216.431,62.953 204.417,60.88 197.512,70.181 190.605,60.88 178.592,62.953 
		180.839,51.872 170.755,45.503 180.839,39.134 178.592,28.054 190.605,30.126 	"/>
	<path d="M204.115,30.349l-6.604-8.895l-6.743,9.081l-11.701-2.02l2.191,10.798l-9.802,6.189l9.802,6.19l-2.191,10.797l11.701-2.019
		l6.743,9.081l6.742-9.081l11.701,2.019l-2.189-10.797l9.8-6.19l-9.8-6.189l2.189-10.798l-11.701,2.02L204.115,30.349z
		 M197.813,20.602l6.767,9.115l12.327-2.127l-2.305,11.364l10.367,6.549l-10.367,6.548l2.305,11.366l-12.327-2.128l-7.068,9.521
		l-7.069-9.521l-12.327,2.128l2.306-11.366l-10.368-6.548l10.368-6.549l-2.306-11.364l12.327,2.127l7.069-9.521L197.813,20.602z"/>
	<path fill-rule="evenodd" clip-rule="evenodd" fill="#F9AE37" d="M106.654,69.774c-0.592-1.81-0.46-4.306,0.061-5.922
		c0.407-1.263,1.02-2.444,1.213-3.594c0.303-1.801-1.692-10.988,3.531-9.793c2.965,0.678,5.472,7.175,9.346,9.61
		c2.309,1.45,7.858,1.817,8.211-2.001c0.426-4.615-2.31-7.896-4.935-10.022c-3.746-3.033-10.731-6.425-14.424-10.863
		c-5.751-6.915-0.412-16.035,7.563-17.737c4.631-0.987,10.221,0.017,13.417,2.813c0.253-0.732,0.9-1.811,1.865-2.765
		c1.997-1.974,3.435-0.574,4.348,1.348c1.396,2.938,2.913,7.574,2.913,10.121c0,2.463-0.771,3.8-2.082,4.197
		s-3.437-0.468-4.604-1.96c-2.209-2.826-3.89-5.901-7.368-6.987c-2.903-0.906-4.423,1.84-4.171,4.616
		c0.296,3.271,1.61,3.699,3.971,5.652c6.676,5.525,19.088,12.043,18.177,21.802c-0.289,3.092-2.211,7.001-5.865,9.246
		c-3.607,2.215-9.144,3.133-14.901,2.195c-2.239-0.365-4.78-1.019-6.357-0.373c-1.18,0.483-2.352,1.735-4.136,2.54
		C110.388,72.818,107.737,73.088,106.654,69.774"/>
	<path d="M106.64,66.894c-0.01,0.966,0.102,1.942,0.371,2.765c0.068,0.209,0.144,0.403,0.224,0.582
		c0.464,1.03,1.126,1.564,1.86,1.774c0.755,0.216,1.605,0.104,2.411-0.158c0.262-0.086,0.52-0.188,0.769-0.301
		c0.915-0.411,1.679-0.959,2.362-1.448c0.629-0.449,1.194-0.853,1.786-1.096c1.405-0.576,3.425-0.21,5.385,0.145
		c0.383,0.069,0.765,0.139,1.174,0.205c2.796,0.455,5.541,0.467,8.03,0.101c2.55-0.376,4.83-1.149,6.616-2.246
		c1.645-1.01,2.929-2.371,3.86-3.84c1.073-1.693,1.679-3.521,1.827-5.12c0.711-7.615-7.035-13.29-13.534-18.05
		c-1.632-1.194-3.186-2.333-4.51-3.429c-0.382-0.316-0.736-0.593-1.064-0.847c-1.77-1.38-2.777-2.164-3.039-5.062
		c-0.079-0.87,0.007-1.741,0.246-2.507c0.222-0.711,0.577-1.341,1.058-1.812c0.495-0.485,1.118-0.801,1.859-0.869
		c0.458-0.041,0.958,0.013,1.492,0.18c2.973,0.927,4.652,3.208,6.408,5.593c0.381,0.518,0.768,1.04,1.144,1.522
		c0.537,0.687,1.296,1.231,2.074,1.563c0.773,0.33,1.55,0.444,2.125,0.27c0.57-0.172,1.022-0.559,1.33-1.18
		c0.314-0.636,0.485-1.516,0.485-2.659c0-1.147-0.322-2.748-0.804-4.424c-0.561-1.946-1.334-3.984-2.072-5.537
		c-0.281-0.592-0.612-1.129-0.993-1.515c-0.264-0.268-0.55-0.458-0.855-0.535c-0.294-0.074-0.62-0.042-0.978,0.128
		c-0.285,0.136-0.592,0.358-0.92,0.682c-0.427,0.422-0.791,0.873-1.082,1.307c-0.333,0.492-0.567,0.952-0.691,1.313l-0.183,0.526
		l-0.419-0.366c-1.514-1.325-3.594-2.237-5.854-2.711c-2.367-0.496-4.926-0.511-7.239-0.017c-2.062,0.438-3.942,1.39-5.485,2.673
		c-1.536,1.276-2.739,2.885-3.455,4.648c-0.712,1.753-0.943,3.66-0.54,5.549c0.31,1.454,0.997,2.9,2.126,4.259
		c2.35,2.825,6.09,5.242,9.443,7.408c1.852,1.195,3.586,2.316,4.93,3.404c1.341,1.086,2.714,2.472,3.699,4.182
		c0.993,1.724,1.593,3.771,1.372,6.166c-0.058,0.613-0.237,1.134-0.51,1.568c-0.479,0.764-1.237,1.252-2.122,1.524
		c-0.853,0.262-1.825,0.322-2.771,0.234c-1.284-0.118-2.536-0.513-3.381-1.044c-1.916-1.203-3.48-3.333-4.929-5.304
		c-1.511-2.056-2.892-3.936-4.3-4.257c-1.806-0.413-2.619,0.626-2.961,2.123c-0.359,1.571-0.237,3.64-0.145,5.211
		c0.056,0.944,0.102,1.717,0.029,2.154c-0.129,0.766-0.426,1.522-0.732,2.305c-0.174,0.443-0.352,0.897-0.496,1.343
		C106.811,64.78,106.65,65.829,106.64,66.894 M106.297,69.891c-0.294-0.9-0.417-1.961-0.407-3.003
		c0.012-1.142,0.185-2.27,0.468-3.149c0.156-0.485,0.335-0.94,0.51-1.387c0.292-0.747,0.576-1.47,0.691-2.155
		c0.06-0.354,0.016-1.089-0.037-1.986c-0.095-1.617-0.221-3.748,0.162-5.423c0.436-1.908,1.493-3.229,3.86-2.688
		c1.681,0.384,3.141,2.372,4.738,4.546c1.408,1.916,2.928,3.985,4.723,5.113c0.753,0.473,1.881,0.824,3.05,0.933
		c0.854,0.078,1.728,0.026,2.481-0.206c0.723-0.222,1.334-0.61,1.71-1.207c0.211-0.338,0.352-0.748,0.397-1.237
		c0.204-2.221-0.352-4.123-1.274-5.725c-0.932-1.615-2.241-2.934-3.523-3.973c-1.303-1.056-3.025-2.168-4.862-3.355
		c-3.397-2.194-7.188-4.644-9.613-7.561c-1.213-1.459-1.951-3.014-2.285-4.582c-0.435-2.041-0.188-4.1,0.578-5.986
		c0.762-1.876,2.042-3.586,3.672-4.942c1.636-1.359,3.627-2.366,5.809-2.832c2.413-0.515,5.081-0.499,7.547,0.018
		c2.188,0.459,4.227,1.315,5.797,2.552c0.146-0.312,0.34-0.651,0.574-1c0.314-0.467,0.711-0.957,1.18-1.42
		c0.389-0.385,0.766-0.655,1.124-0.826c0.528-0.251,1.023-0.293,1.481-0.178c0.447,0.112,0.849,0.374,1.206,0.736
		c0.444,0.447,0.822,1.057,1.139,1.722c0.755,1.59,1.545,3.67,2.116,5.652c0.5,1.737,0.833,3.408,0.833,4.629
		c0,1.262-0.197,2.253-0.565,2.99c-0.405,0.819-1.013,1.332-1.784,1.565c-0.749,0.227-1.711,0.099-2.637-0.296
		c-0.885-0.376-1.751-1.002-2.37-1.792c-0.415-0.531-0.79-1.039-1.158-1.54c-1.683-2.283-3.29-4.466-6.026-5.319
		c-0.441-0.138-0.842-0.183-1.2-0.15c-0.559,0.051-1.029,0.29-1.403,0.657c-0.388,0.382-0.68,0.903-0.867,1.501
		c-0.211,0.676-0.286,1.445-0.217,2.216c0.233,2.574,1.147,3.285,2.754,4.537c0.333,0.257,0.694,0.539,1.083,0.859
		c1.318,1.092,2.858,2.22,4.474,3.402c6.654,4.874,14.587,10.686,13.837,18.724c-0.16,1.711-0.802,3.661-1.938,5.454
		c-0.987,1.557-2.353,3.002-4.104,4.078c-1.873,1.15-4.248,1.957-6.897,2.348c-2.561,0.377-5.383,0.365-8.26-0.103
		c-0.364-0.059-0.774-0.134-1.186-0.209c-1.854-0.335-3.765-0.681-4.968-0.188c-0.508,0.209-1.041,0.59-1.633,1.013
		c-0.709,0.509-1.503,1.076-2.491,1.522c-0.272,0.122-0.556,0.235-0.844,0.33c-0.934,0.304-1.933,0.43-2.849,0.167
		c-0.936-0.269-1.771-0.929-2.339-2.189C106.459,70.346,106.374,70.126,106.297,69.891z"/>
</g>
</svg>
